<svg xmlns="http://www.w3.org/2000/svg" version="1.1" xmlns:xlink="http://www.w3.org/1999/xlink" xmlns:svgjs="http://svgjs.com/svgjs" width="512" height="512" x="0" y="0" viewBox="0 0 512 512" style="enable-background:new 0 0 512 512" xml:space="preserve" class=""><g><g><path d="m166 295.25c8.28 0 15 6.71 15 15v141.75h-90v-141.75c0-8.29 6.72-15 15-15z" fill="#fbbe24" data-original="#000000" class=""></path><path d="m286 205.25c8.28 0 15 6.71 15 15v231.75h-90v-231.75c0-8.29 6.72-15 15-15z" fill="#fbbe24" data-original="#000000" class=""></path><path d="m406 295.25c8.28 0 15 6.71 15 15v141.75h-90v-141.75c0-8.29 6.72-15 15-15z" fill="#fbbe24" data-original="#000000" class=""></path><g><path d="m512 497c0 8.28-6.72 15-15 15h-482c-8.28 0-15-6.72-15-15v-482c0-8.28 6.72-15 15-15s15 6.72 15 15v180.25h123.56l90.32-123.84c5.6-8.13 18.64-8.13 24.24 0l90.32 123.84h102.35l-15.81-15.81c-5.85-5.86-5.85-15.35 0-21.21 5.86-5.86 15.36-5.86 21.22 0l41.41 41.41c5.72 5.52 5.82 15.45.14 21.05-.08.1-.18.19-.27.29l-42.41 41.41c-2.92 2.85-6.7 4.27-10.48 4.27-3.9 0-7.79-1.52-10.73-4.53-5.79-5.92-5.68-15.42.25-21.21l16.06-15.67h-109.36c-4.79 0-9.3-2.29-12.12-6.17l-82.69-113.38-82.69 113.38c-2.82 3.88-7.33 6.17-12.12 6.17h-131.19v256.75h467c8.28 0 15 6.72 15 15z" fill="#fbbe24" data-original="#000000" class=""></path></g></g></g></svg>