<?xml version="1.0" standalone="no"?>
<!DOCTYPE svg PUBLIC "-//W3C//DTD SVG 20010904//EN"
 "http://www.w3.org/TR/2001/REC-SVG-20010904/DTD/svg10.dtd">
<svg version="1.0" xmlns="http://www.w3.org/2000/svg"
 width="871.000000pt" height="871.000000pt" viewBox="0 0 871.000000 871.000000"
 preserveAspectRatio="xMidYMid meet">
<metadata>
Created by potrace 1.14, written by Peter Selinger 2001-2017
</metadata>
<g transform="translate(0.000000,871.000000) scale(0.100000,-0.100000)"
fill="#000000" stroke="none">
<path d="M729 8695 c-1 -15 2 -86 6 -104 1 -9 6 -41 10 -71 52 -412 195 -777
418 -1070 111 -145 334 -341 490 -429 87 -49 298 -148 322 -151 3 0 10 -2 17
-4 91 -29 126 -38 198 -55 47 -11 101 -23 120 -26 19 -3 46 -8 60 -10 75 -15
230 -18 1128 -19 950 -1 984 -2 997 -20 33 -44 95 -178 125 -266 46 -139 68
-282 65 -425 -6 -246 -78 -478 -214 -683 l-42 -62 -52 -1 c-57 0 -165 1 -382
6 -77 2 -286 6 -465 10 -179 3 -373 8 -432 9 -91 3 -107 1 -110 -13 -2 -9 -3
-295 -2 -636 2 -341 4 -901 5 -1245 l2 -625 157 -155 c87 -85 374 -368 638
-628 264 -260 547 -539 630 -620 82 -81 362 -356 621 -612 l471 -465 138 -70
c325 -165 643 -245 969 -246 93 -1 197 6 253 16 14 3 40 7 58 10 79 13 102 18
186 41 194 55 397 150 576 270 115 77 282 221 278 239 -2 7 -648 660 -1436
1451 -788 790 -1431 1438 -1430 1439 2 1 48 22 103 45 295 127 668 349 865
516 185 157 346 322 462 474 140 185 262 406 343 625 41 110 99 329 110 415 4
30 8 57 10 60 8 13 19 197 19 310 0 137 -8 232 -40 490 -25 202 -123 576 -185
704 -10 22 -19 44 -19 48 0 16 -117 243 -170 328 -55 90 -164 242 -215 300
-43 49 -223 230 -265 265 -188 159 -352 268 -567 373 -224 110 -497 204 -718
248 -11 2 -47 9 -80 16 -79 15 -4024 18 -4026 3z"/>
<path d="M1538 4925 c-2 -2 -26 -5 -54 -8 -183 -19 -380 -121 -518 -268 -161
-170 -240 -373 -239 -609 0 -58 6 -132 13 -165 61 -293 269 -542 540 -649 62
-24 168 -53 200 -55 138 -6 198 -5 264 5 322 52 588 275 692 582 38 113 51
196 48 313 -10 409 -306 759 -710 839 -51 10 -229 21 -236 15z"/>
<path d="M1465 1753 c-260 -38 -500 -206 -633 -443 -40 -70 -89 -218 -98 -295
-38 -305 58 -576 275 -776 173 -159 367 -234 606 -233 114 1 183 13 286 50
288 104 501 347 566 647 16 74 21 249 9 323 -16 109 -74 255 -138 348 -195
287 -526 431 -873 379z"/>
</g>
</svg>
