<!DOCTYPE svg PUBLIC "-//W3C//DTD SVG 20010904//EN" "http://www.w3.org/TR/2001/REC-SVG-20010904/DTD/svg10.dtd">

<svg xmlns="http://www.w3.org/2000/svg" version="1.0" width="32" height="32" viewBox="0 0 907.000000 1088.000000" preserveAspectRatio="xMidYMid meet">
  <defs>
    <linearGradient id="grad1" x1="0%" y1="0%" x2="100%" y2="0%">
    <stop offset="0%" style="stop-color:#fbbf24;stop-opacity:1">
    </stop><stop offset="100%" style="stop-color:#d97706;stop-opacity:1">
    </stop>
    </linearGradient>
  </defs>
<g transform="translate(0.000000,1088.000000) scale(0.100000,-0.100000)" fill="url(#grad1)" stroke="none">
<path class="r1" d="M10 10852 c0 -95 59 -441 105 -617 257 -984 906 -1585 1910 -1768 119 -21 134 -21 1401 -25 l1280 -3 36 -62 c141 -243 205 -464 215 -740 13 -350 -75 -659 -270 -949 l-52 -77 -80 -1 c-44 0 -377 7 -740 15 -363 8 -732 15 -820 16 l-160 2 3 -1314 c1 -723 5 -1431 9 -1575 l6 -261 1568 -1544 1568 -1544 148 -77 c415 -216 818 -319 1243 -319 571 1 1144 226 1593 625 48 43 87 82 87 88 0 5 -806 819 -1791 1808 -985 989 -1790 1802 -1788 1806 2 5 58 33 124 62 1307 573 2081 1492 2241 2662 11 84 17 194 17 335 1 188 -3 238 -36 477 -51 370 -85 530 -169 788 -173 536 -462 990 -858 1348 -450 407 -1013 685 -1680 830 l-125 27 -2492 3 c-2390 2 -2493 1 -2493 -16z"/>
<path d="M980 6140 c-406 -55 -740 -310 -890 -678 -60 -148 -75 -231 -74 -417 0 -151 4 -181 27 -268 127 -473 528 -799 1017 -824 485 -24 937 289 1089 755 43 130 54 221 49 384 -6 156 -24 248 -77 375 -114 277 -347 503 -626 608 -150 57 -370 85 -515 65z"/>
<path d="M980 2190 c-496 -68 -871 -426 -957 -915 -22 -127 -13 -317 21 -448 90 -350 348 -634 686 -758 583 -213 1227 100 1419 689 43 130 54 221 49 384 -6 156 -24 248 -77 375 -136 330 -432 577 -780 653 -104 23 -272 32 -361 20z"/>
</g>
</svg>